# xmcd
#
# Track frame offsets: 
#        150
#        23889
#        37924
#        52173
#        66302
#        78948
#        91700
#        105431
#        118749
#        131736
#        143939
#        156166
#
# Disc length: 2217 seconds
#
# Revision: 0
# Processed by: cddbd v1.5.2PL0 Copyright (c) Steve Scherf et al.
# Submitted via: ExactAudioCopyFreeDBPlugin 1.0
#
DISCID=9d08a70c
DTITLE=Ray Charles - Song Book Collection
DYEAR=2006
DGENRE=Blues
TTITLE0=Night Time Is The Right Time
TTITLE1=Crying Time
TTITLE2=Blues Is My Middle Name
TTITLE3=Walkin' And Talkin'
TTITLE4=Don't Put all Your Dreams
TTITLE5=Lonely Boy
TTITLE6=I'm Going Down The River
TTITLE7=Alone In The city
TTITLE8=Baby Won't You Please Come Home
TTITLE9=I Will Not Let You Go
TTITLE10=Tell Me How Do You Feel
TTITLE11=I'm Movin' On
EXTD=
EXTT0=
EXTT1=
EXTT2=
EXTT3=
EXTT4=
EXTT5=
EXTT6=
EXTT7=
EXTT8=
EXTT9=
EXTT10=
EXTT11=
PLAYORDER=
